<svg version="1.2" xmlns="http://www.w3.org/2000/svg" viewBox="0 0 1512 304" width="1512" height="304"><style>.a{fill:#83b81a}</style><path class="a" d="m1423.4 13.3c-4.4-5.9-8.7-10.3-30.6-11.7-5.8 0-23.4-1.5-54-1.5-80.2 0-135.6 24.8-163.3 73 7.3-48.2-39.4-73-141.5-73-119.6 0-195.5 48.2-226.1 145.9-11.7 36.4-11.7 65.6-2.9 89h-29.2c-21.9 1.4-51 2.9-70 2.9-43.8 0-71.5-7.3-81.7-21.9-8.7-13.1-8.7-37.9 2.9-74.4 19-59.8 64.2-86 137.1-86 38 0 74.4 4.3 74.4 4.3 4.4 0 7.3-5.8 7.3-10.2l-1.4-4.4-3-20.4c-1.4-13.1-11.6-20.4-29.1-23.3-16.1-1.5-29.2-1.5-46.7-1.5h-1.5c-94.8 0-161.9 32.1-198.3 93.4 13.1-62.7-30.7-93.4-131.3-93.4-56.9 0-97.7 1.5-121.1 4.4-18.9 2.9-30.6 10.2-35 23.3l-8.7 26.3c-1.5 4.4 1.4 7.3 7.3 7.3 4.4 0 21.9-2.9 51-4.4 39.4-2.9 67.1-4.4 86.1-4.4 55.4 0 80.2 14.6 71.5 42.3-1.5 5.9-5.9 10.2-13.2 11.7-52.5 8.8-94.8 14.6-125.4 19-87.5 11.6-138.6 37.9-151.7 81.6-19 59.8 27.7 89 140 89 55.4 0 103.6-2.9 141.5-10.2 21.9-4.4 33.5-8.7 37.9-23.3l20.4-67.1c-1.4 67.1 43.8 100.6 140.1 100.6 40.8 0 80.2-1.4 99.2-4.4 18.9-2.9 29.1-7.3 33.5-21.8l4.4-20.5c20.4 32.1 65.6 48.2 134.2 48.2 72.9 0 115.2-1.5 126.9-5.9 10.2-2.9 16-8.7 18.9-16 0-1.5 0-2.9 1.5-4.4l8.7-27.7c1.5-4.4-1.4-7.3-7.3-7.3l-46.6 2.9c-30.7 1.5-55.5 3-73 3-33.5 0-55.4-3-68.5-7.3-19-7.3-27.7-20.5-26.3-42.3l147.3-19c65.7-8.8 110.9-29.2 132.8-61.3l-51.1 170.7c-1.4 2.9 0 5.8 1.5 7.3 1.4 1.4 4.4 2.9 10.2 2.9h61.3c10.2 0 14.5-5.8 16-10.2l54-188.2c7.3-24.8 29.1-36.4 70-36.4 36.4 0 62.7 0 80.2 1.4h1.5c2.9 0 8.7-1.4 13.1-8.7l8.7-26.3c0-4.4 0-8.7-2.9-11.6zm-983.1 224.6c-18.9 2.9-46.6 4.4-81.6 4.4-62.8 0-89-13.2-81.7-38 5.8-17.5 21.9-29.1 48.1-32.1l141.5-18.9zm652-151.7q-8.8 28.4-83.2 39.4l-118.1 16 2.9-10.2c10.2-32.1 23.3-52.5 40.8-64.2q26.3-17.5 87.6-17.5c53.9 1.5 77.3 13.1 70 36.5z"/></svg>