<svg version="1.2" xmlns="http://www.w3.org/2000/svg" viewBox="0 0 210 297" width="210" height="297"><style>.a{fill:#015294}</style><path fill-rule="evenodd" class="a" d="m105 43.5c58 0 105 47 105 105 0 58-47 105-105 105q-2.9 0-5.8-0.2l22.1-62h23c6.6 0 13.6-5.4 15.5-12.1l19.4-54.5c4-11-3.4-17.5-11.8-17.6h-37.9l-50.9 143.1c-45.2-11.7-78.6-52.8-78.6-101.7 0-49.9 34.8-91.7 81.5-102.3l-50.5 141.7h21.7l24.5-68.6h12.5l-24.4 68.5h21.7l22.5-63.1c3.9-11-3.5-17.5-11.9-17.6h-16.1l22.6-63.6q0.5 0 0.9 0z"/><path fill-rule="evenodd" class="a" d="m125.6 179.2l21.4-59.9h12.4l-21.3 59.9z"/></svg>