<svg version="1.2" xmlns="http://www.w3.org/2000/svg" viewBox="0 0 2505 530" width="2505" height="530"><style>.a{fill:#e60012}</style><path class="a" d="m1050.3 117.8c-45.1 0-96.4 21-127.8 62.8v-56.2h-107.7v392.1h107.7v-223.1c0-40.2 31.1-82.8 88.8-82.8 44.5 0 90.6 30.9 90.6 82.8v223.1h107.7v-243.1c0-90.1-64.5-155.6-159.3-155.6zm924.5 6.6l-97.3 267.1-97.4-267.1h-123l161.4 392h117.9l161.4-392zm-1274.6 271.5c-45.3 33.6-71.2 41.6-112.5 41.6-37.2 0-66.3-11.6-86.8-31.8l275.2-114.2c-6-42.6-22.1-80.6-47-109.5-36.1-42-89.7-64.2-154.9-64.2-118.3 0-207.6 87.3-207.6 202.7 0 118.3 89.5 202.7 219.5 202.7 72.9 0 147.4-34.6 182.2-74.9zm-206.8-153.4c18.3-24.6 47.5-39.1 82.8-39.1 38.8 0 68.2 22.2 83.4 54.9l-188.1 78c-5.1-40 5.1-71.4 21.9-93.8zm-137.1 175.1h-244.7v-410.5h-109.1v509.3h353.8zm1934.8 105.5c-117.8 0-210.1-87.7-210.1-202.6 0-113.7 92.9-202.7 211.5-202.7 117.7 0 210 87.7 210 202.7 0 113.6-92.9 202.6-211.4 202.6zm0-313c-60.2 0-103.8 45.5-103.8 110.4 0 61.8 46.2 110.3 105.2 110.3 60.1 0 103.8-46.8 103.8-110.3 0-61.9-46.2-110.4-105.2-110.4zm-829 313c-117.7 0-210-87.7-210-202.6 0-113.7 92.9-202.7 211.5-202.7 117.7 0 210 87.7 210 202.7 0 113.6-92.9 202.6-211.5 202.6zm0-313c-60.1 0-103.7 45.5-103.7 110.4 0 61.8 46.2 110.3 105.2 110.3 60.1 0 103.7-46.8 103.7-110.3 0-61.9-46.2-110.4-105.2-110.4z"/></svg>