<svg version="1.2" xmlns="http://www.w3.org/2000/svg" viewBox="0 0 2503 1464" width="2503" height="1464"><style>.a{fill:#fff}.b{fill:#2d4f9e}</style><path fill-rule="evenodd" class="a" d="m0-392h2500v2500h-2500z"/><path fill-rule="evenodd" class="b" d="m2071.3 1044.9v71.5h34.9v34.5h-35.6v63h-40.2v-169zm0 182.9v138.3h-192.5v-138.3zm-39.3 33.7h-113.8v70.8h113.8zm-98.2-210.5c0 0-2.3 91.5 68.2 128.4l-23.5 28.9c0 0-51.6-34.3-63.7-73.5-12.1 39.2-63.6 73.5-63.6 73.5l-23.5-28.9c70.5-36.9 68.2-128.4 68.2-128.4zm447.7-6.1v169h-40.2v-77.6h-52.2v-34.6h51.5v-56.8zm8.2 249.7c0 45.6-48.5 82.6-108.2 82.6-59.8 0-108.3-37-108.3-82.6 0-45.6 48.5-82.6 108.3-82.6 59.7 0 108.2 37 108.2 82.6zm-41 0c0-25.5-30.1-46.1-67.2-46.1-37.2 0-67.4 20.6-67.4 46.1 0 25.5 30.2 46.1 67.4 46.1 37.1 0 67.2-20.6 67.2-46.1zm-110.8-243.6c0 0-2.3 91.5 68.2 128.4l-23.5 28.9c0 0-51.6-34.3-63.7-73.5-12.1 39.2-63.6 73.5-63.6 73.5l-23.5-28.9c70.5-36.9 68.2-128.4 68.2-128.4zm-198.4-265.1l-24.3 12.2c2.8-2.9 7.2-9.6 7.2-9.6 5.9-8.5 6.1-23.1 6.1-23.1v-69.3h-74.4v32.9h15.8v35.2c0 17.2-14.5 17.6-14.5 17.6-17.6 0-17-16.4-17-16.4v-121.9c0-12.6 15.7-13.2 15.7-13.2 15 0 15.1 14.9 15.1 14.9v18.6h58c1.9-36.2-5.2-45-5.2-45-14.4-32.7-68.8-30.9-68.8-30.9-83.5 0-74.2 65-74.2 65v117.9c1.7 60.9 76.3 54.8 76.3 54.8 1.4 0 2.7-0.3 4.1-0.3-440.5 199.6-1096.1 284.3-1530.2 241.7-397.1-39-445.7-249-19.5-451.1-0.1 0.2-0.3 0.3-0.3 0.5 0 0-6.4 6.9-6.4 31.1v17.5c0 0-0.7 20.2 9.5 33.1 0 0 5.7 8.6 19.8 18q5.8 3.1 11.5 6.2 5.7 3.1 11.5 6.2 5.7 3.1 11.5 6.1 5.7 3.1 11.5 6.1c0 0 17.4 10.1 15.1 26.1 0 0-1.4 16.5-18.2 15.8 0 0-15.4-0.7-15.4-16.8v-19h-61.5v27.6c0 0-1.8 52.6 77.3 52.6 0 0 75.6 1.6 79.2-54v-22.4c0 0 2.6-34.1-26.8-52 0 0-15.7-9.9-25.4-13.7 0 0-30.1-14.1-36-20.8 0 0-11.7-11.2-4.9-24.2 0 0 2.9-8.5 15.3-8.5 0 0 16.1 0.9 16.1 14.3v19h57.8l-0.1-27.9c0 0 4.4-45.8-68.1-47.8 0 0-5.4-0.4-13.4 0.1l26-11.4c435.5-178.3 1060.6-271.6 1488.5-228.5 397.1 40 445.9 233.8 55.7 436.7zm-1255.1 33.2l-38-222.6h-97.1l-38 222.6h61.5l22.5-172.6h5l22.6 172.6zm306.8 0.2l-6.2-222.6h-95.6l-19.3 121.8h-4.5l-18.5-121.9h-96.6l-4.8 222.7h57.2l0.6-167.8h4.5l30.3 167.7h60.1l30-167.6h3.9l1.4 167.7zm198.8-120.7c0 0-15.7-9.9-25.4-13.7 0 0-30.1-14.1-36-20.8 0 0-11.7-11.2-4.9-24.2 0 0 2.9-8.5 15.3-8.5 0 0 16.1 0.9 16.1 14.3v19h57.8l-0.1-27.9c0 0 4.4-45.8-68.1-47.8 0 0-57-3.8-73.4 27.3 0 0-6.4 7-6.4 31.2v17.5c0 0-0.6 20.2 9.5 33.1 0 0 5.8 8.6 19.9 18 0 0 28.8 15.7 46 24.6 0 0 17.4 10.1 15.1 26.1 0 0-1.4 16.5-18.2 15.8 0 0-15.4-0.7-15.4-16.8v-19h-61.6v27.5c0 0-1.7 52.7 77.4 52.7 0 0 75.6 1.6 79.2-54v-22.4c0 0 2.6-34.1-26.8-52zm254.8 67v-169.8h-61.4v167.8c0 0 0.9 18.3-15.9 18.3 0 0-17.7 1-17.7-17.9l-0.2-168.3h-62.7v167c0 0-6.5 63.2 81.5 63.2 0 0 76.4 0.9 76.4-60.3zm260.5 53.7v-222.6h-58l4.2 135h-2.5l-58.8-135h-70.3v222.6h57.2l-3.4-136.1h2.5l60.9 136.1z"/></svg>