<svg version="1.2" xmlns="http://www.w3.org/2000/svg" viewBox="0 0 2503 1020" width="2503" height="1020"><style>.a{fill:#fff}</style><path fill-rule="evenodd" class="a" d="m0-720h2500v2500h-2500z"/><path fill-rule="evenodd" d="m2440.1 663.4c4.4 1.9 8.5 4.6 11.9 8 3.5 3.4 6.2 7.5 8 12 1.9 4.5 2.8 9.3 2.8 14.1 0.1 4.9-0.9 9.7-2.7 14.2-1.9 4.5-4.6 8.6-8 12-3.4 3.4-7.5 6.2-12 8-4.5 1.9-9.3 2.9-14.1 2.9-10 0.2-19.6-3.6-26.7-10.6-7-7-11-16.5-11-26.4 0-9.9 4-19.4 11-26.4 7.1-7 16.7-10.8 26.7-10.6 4.8 0 9.6 1 14.1 2.8zm-1.7 64.2c3.9-1.6 7.5-4 10.5-7 3.1-3.1 5.4-6.7 7.1-10.6 1.6-4 2.4-8.2 2.4-12.5 0-4.2-0.9-8.5-2.5-12.4-1.6-3.9-4-7.5-7-10.5-3-3-6.6-5.4-10.5-7.1-4-1.6-8.2-2.4-12.4-2.4-4.3 0-8.5 0.8-12.5 2.4-3.9 1.6-7.5 4-10.5 7-3.1 3.1-5.5 6.6-7.1 10.6-1.6 3.9-2.5 8.1-2.5 12.4 0 4.3 0.8 8.5 2.5 12.5 1.6 4 4 7.6 7 10.6 3 3 6.6 5.4 10.6 7.1 3.9 1.6 8.2 2.4 12.5 2.4 4.2 0 8.5-0.8 12.4-2.5z"/><path fill-rule="evenodd" d="m2209.1 488l75.7-80.8c4.4-5.9 6.5-10 6.5-13.6 0-5.9-5.1-8.3-21.1-8.3h-19.1v-51h206.5v51h-27.1c-31.3 0-37.2 4.7-80.9 59.9l-119.6 129.1v78.9c0 20.2 10.2 27.2 39.3 27.2h45.2v49.2h-289.3v-49.2h45.2c29.1 0 39.3-7 39.3-27.2v-78.9l-140.9-155.8c-23.2-27.3-20-33.2-84.9-33.2v-51h261.6v51h-18.6c-18.9 0-27 3.6-27 10.7 0 5.9 5.9 10.6 9.5 15.4l71.3 77.7c8.5 8.8 18.8 9.9 28.4-1.1zm222.8 211.2l12.5 19h-6l-11.9-19h-9.3v19h-5v-41.3h18c3.5 0 7 0.2 10.1 2 3.1 1.8 4.6 5.4 4.6 8.9 0 8.2-5.7 11.2-13 11.4zm7.9-11.5c0-6.4-5.6-7.1-10.8-7.1h-11.8v14.6h7.8c5.8 0 14.8 1 14.8-7.5zm-1985.8-353.4h63.1v142.2h-58.3c-5.1-28.4-22.9-39.4-39.2-54.4-29.2-26.9-92.6-49.3-145.9-49.3-68.9 0-127 21.4-127 52.8 0 87.1 393.6 17.8 393.6 182.5 0 86-84.3 134-235.7 134-52.4 0-131.7-16.3-178.5-41.2-14.7-8.4-20.9 8.1-23.6 28.7h-64.7v-147h58.5c12.9 37.4 30.7 45.1 47 59.9 28.4 26.1 96 45.1 157.9 44.4 93.4-0.9 125.5-21.3 125.5-50.9 0-29.7-31.7-36.8-134.1-52.8l-86.9-14.2c-98.1-14.8-169.5-36.7-169.5-115 0-81.2 90.4-132.1 233.2-132.1 60.2 0 110.5 8 158.8 35.3 13.4 8.7 26 9.8 25.8-22.9zm1231.5 238.2l1.2-158.1c0-20.8-10.8-27.9-41.6-27.9h-36.2v-49.2h230.5v49.2h-30.1c-30.8 0-41.6 7.1-41.6 27.9v318.2l-90.2-0.7-292.2-276.6v200.9c0 20.1 10.8 27.8 41.6 27.8h40.1v48.6h-239.3v-48.6h39.6c30.9 0 41.7-7.7 41.7-27.8v-241.8c0-20.8-10.8-27.9-41.7-27.9h-39.6v-49.2h206.9zm-475.8-48.5c0 135.7-111 215.2-301.8 215.2-179.7 0-293.1-80.6-293.1-208.7 0-130.3 115-211.5 298.7-211.5 176.5 0 296.3 82.9 296.2 205zm-136.9 7.7c0-101.9-58.4-161.8-158.4-161.8-104.2 0-165.2 58.7-165.2 157.7 0 101.3 58.4 160 160.1 160 104.2 0 163.5-56.3 163.5-155.9z"/></svg>