<svg version="1.2" xmlns="http://www.w3.org/2000/svg" viewBox="0 0 2504 405" width="2504" height="405"><style>.a{fill:#ad2d5a}</style><path fill-rule="evenodd" class="a" d="m393.4 22.5c-30.7 4-38.9 16.3-51.2 47.1l-129 334.9h-16.3l-147.5-341c-14.4-34.9-22.6-36.8-47.2-41v-14.3h192.6v14.4c-36.9 2.1-49.1 2.1-49.1 24.6 0 10.2 10.2 34.7 16.3 49.1l75.8 179.2 71.7-187.4c6.2-12.3 12.3-26.7 12.3-39 0-22.4-16.3-24.5-49.1-26.6v-14.3h120.8zm123 371.8h-137.3v-12.2c20.5-6.2 30.7-8.3 30.7-34.8v-169c0-24.6-8.3-28.7-30.7-32.8v-14.4h110.6v218.2c0 16.3 4.1 28.6 26.7 32.8zm-67.7-394.3c24.6 0 43 20.5 43 45 0 24.6-18.4 43-43 43-26.6 0-45.1-18.4-45.1-43 0-24.5 18.6-45 45.1-45zm309.3 330.7c-34.9 53.4-67.6 71.8-114.7 71.8-57.4 0-114.8-43.1-114.8-141.4 0-82.9 51.3-136.2 116.9-136.2 100.3 0 106.5 99.3 108.5 128h-143.3c2 49.1 14.2 108.6 67.5 108.6 34.9 0 55.4-24.6 65.6-39zm-73.8-98.3c0-16.4 0-46.1-6.1-62.5-2.1-14.2-10.2-28.6-30.7-28.6-20.4 0-40.9 14.4-40.9 91.1zm473.2-87c-10.2 2-18.4 2-28.6 28.6l-88.1 228.5h-14.3l-57.4-174.1h-2.1l-69.6 174.1h-14.4l-84-214.1c-16.4-36.9-18.4-41.1-32.8-43v-14.4h127v14.4c-8.2 0-22.5 2-22.5 16.3 0 12.3 20.5 54.3 49.1 132.2l39-97.3c-6.2-20.5-10.2-30.7-12.3-39-6.1-10.2-12.3-10.2-26.7-12.2v-14.4h135.3v14.4c-14.4 0-28.6 2-28.6 14.3 0 12.3 24.5 85 34.7 130.1h2.1c14.4-43 45.1-111.6 45.1-123.9 0-18.5-12.3-18.5-28.6-20.5v-14.4h77.8v14.4zm254-20.5c-10.3-41-45-106.5-112.6-106.5-28.6 0-61.4 16.3-61.4 55.2 0 30.7 12.3 43 59.4 65.6l84 43c20.6 10.2 62.6 42 62.6 103.4 0 51.3-35.9 118.8-142.4 118.8-53.3 0-79.8-18.4-96.3-18.4-12.3 0-16.3 10.2-18.4 18.4h-16.4v-141.2h16.4c12.3 59.4 45.1 122.9 118.8 122.9 67.5 0 71.7-55.3 71.7-63.5 0-38.9-28.7-51.2-65.6-69.6l-36.9-18.5c-98.2-46-98.2-95.2-98.2-121.8-0.2-34.9 16.2-112.8 124.8-112.8 47 0 73.7 20.5 90.1 20.5 14.4 0 16.4-10.2 18.5-20.5h18.4v125zm185.4 0c73.7 0 127 59.4 127 138.3 0 75.7-49.2 139.3-127 139.3-79.9 0-131.1-65.6-131.1-139.3 0-72.8 51.2-138.3 131.1-138.3zm0 259.1c38.9 0 42.9-47.1 42.9-120.8 0-87.1-8.1-121.9-42.9-121.9-43 0-47.1 57.4-47.1 121.9 0 61.4 0 120.8 47.1 120.8zm434.3 10.2h-133.2v-12.3c18.5-2 26.7-12.2 26.7-32.8v-139.2c0-15.4 0-48.2-32.8-48.2-22.5 0-47.2 28.6-47.2 34.8v152.5c0 12.3 2.1 28.7 28.7 32.8v12.3h-139.3v-12.3c22.4-4 30.7-8.2 30.7-34.7v-168.9c0-24.6-6.2-30.8-30.7-32.8v-14.4h110.5v41c8.2-12.3 32.8-47.1 81.9-47.1 32.8 0 77.9 16.3 77.9 78.8v145.4c0 12.3 0 30.8 26.7 32.8zm151.5 0h-135.2v-12.2c20.5-6.2 28.6-8.3 28.6-34.8v-169c0-24.6-8.2-28.7-28.6-32.8v-14.4h108.6v218.2c0 16.3 4 28.6 26.6 32.8zm-65.5-394.3c22.4 0 42.9 20.5 42.9 45 0 24.6-20.5 43-42.9 43-26.7 0-45.1-18.4-45.1-43 0-24.5 18.4-45 45.1-45zm309.2 343c-26.6 36.9-63.5 59.4-108.5 59.4-73.7 0-123-61.4-123-131.1 0-111.6 81.9-146.4 135.3-146.4 41 0 88 20.5 88 61.4 0 35.9-32.8 35.9-38.9 35.9-30.7 0-30.7-27.7-30.7-58.4 0-16.3-14.4-22.5-24.6-22.5-43 0-47.2 70.7-47.2 95.2 0 82 34.9 127 77.9 127 32.8 0 49.2-16.3 61.4-30.7zm-8.1-228.3c0-22.6 20.5-41 43-41 22.5 0 40.9 18.5 40.9 41 0 24.6-18.4 43-40.9 43-22.6 0-43.1-18.4-43-43zm43 34.8c18.4 0 32.8-14.3 32.8-34.8 0-18.4-14.4-34.8-32.8-34.8-20.5 0-34.9 16.4-34.9 34.8 0 20.5 14.4 34.8 34.9 34.8zm-10.2-10.2h-6.1v-47.2h18.4c10.2 0 16.3 4.1 16.3 12.3 0 10.3-4 12.3-12.2 14.3l14.3 20.6h-8.2l-12.3-20.6h-10.3zm10.2-26.6c6.1 0 10.2 0 10.2-8.2 0-6.2-4.1-6.2-10.2-6.2h-10.3v14.4z"/></svg>